<svg xmlns="http://www.w3.org/2000/svg" viewBox="0 0 167.5 167.5">
  <path fill="#1DB954" d="M83.7 0C37.5 0 0 37.5 0 83.7c0 46.3 37.5 83.7 83.7 83.7 46.3 0 83.7-37.5 83.7-83.7S130 0 83.7 0zM122 120.8c-1.4 2.5-4.6 3.2-7 1.8-19.3-11.8-43.5-14.5-72-7.9-2.8.5-5.5-1.3-6-4.1-.5-2.8 1.3-5.5 4.4-6 31.3-7.1 58-4 79.5 9.1 2.4 1.6 3.1 4.6 1.4 7.1zm10.4-23.1c-1.9 3-5.8 4-8.8 2.1-22.1-13.6-55.7-17.5-81.8-9.6-3.4 1-7-1-8-4.4-1-3.4 1-7 4.4-8 29.7-9 66.6-4.7 92 11.1 3 1.8 4 5.8 2.2 8.8zm.9-24.1c-26.5-15.7-70.2-17.2-95.4-9.5-4 1.2-8.3-1.1-9.5-5.1s1.1-8.3 5.1-9.5c29-8.8 77.2-7.1 107.8 11 3.7 2.2 4.9 7 2.7 10.7-2.1 3.6-6.9 4.9-10.7 2.4z"/>
</svg> 